<?xml version="1.0" encoding="UTF-8"?>
<svg width="24px" height="24px" viewBox="0 0 24 24" version="1.1" xmlns="http://www.w3.org/2000/svg" xmlns:xlink="http://www.w3.org/1999/xlink">
    <!-- Generator: Sketch 48.2 (47327) - http://www.bohemiancoding.com/sketch -->
    <title>Canvas label or note_2</title>
    <desc>Created with Sketch.</desc>
    <defs></defs>
    <g id="Step-icons" stroke="none" stroke-width="1" fill="none" fill-rule="evenodd">
        <g id="Canvas-label-or-note_2" fill="#21343E" fill-rule="nonzero">
            <path d="M7.28900706,9.73527447 L16.789261,11.3186501 C16.8114283,11.3226086 16.8328039,11.3241919 16.8549711,11.3241919 C17.0449762,11.3241919 17.212814,11.18723 17.2452732,10.9932664 C17.2808992,10.7779273 17.1344369,10.5736719 16.9190978,10.5380459 L7.41884387,8.95467027 C7.2019214,8.91746094 6.99924932,9.06471488 6.96362336,9.28005397 C6.92799741,9.49539306 7.07366797,9.69964852 7.28900706,9.73527447 Z M10.9814391,16.2777827 L6.23131212,15.4860949 C6.01359797,15.4465105 5.81171757,15.5953478 5.77609162,15.8114786 C5.74046566,16.0268177 5.88613623,16.2310731 6.10147532,16.2666991 L10.8516023,17.0583869 C10.8737696,17.0623453 10.8951451,17.0639287 10.9165207,17.0639287 C11.1065258,17.0639287 11.2743636,16.9269667 11.3068228,16.7330032 C11.3432404,16.5176641 11.1967782,16.3134087 10.9814391,16.2777827 Z M10.0599145,7.95397685 L14.8100415,8.74566468 C14.8322087,8.74962312 14.8535843,8.7512065 14.8749599,8.7512065 C15.0649649,8.7512065 15.2328028,8.6142445 15.265262,8.42028098 C15.3008879,8.20494189 15.1552173,8.00068643 14.9398783,7.96506048 L10.1897513,7.17337265 C9.97441218,7.13616332 9.77015672,7.28341726 9.73453077,7.49875635 C9.69890482,7.71409544 9.84457538,7.9183509 10.0599145,7.95397685 Z M21.2076708,4.37475617 C21.202129,4.26787831 21.1530444,4.16812564 21.0722922,4.09845711 C20.99154,4.0279969 20.8846622,3.99237095 20.7793677,4.00266289 L10.801726,4.83393511 L5.8354682,4.00582964 C5.62171249,3.96862031 5.41824872,4.11349918 5.38103939,4.3272549 L3.0059759,17.785948 C2.98776708,17.8896591 3.01151771,17.9973287 3.07247768,18.082831 C3.13343764,18.1683332 3.22606511,18.2277098 3.33056791,18.245127 L6.88207952,18.8373095 L6.95808155,20.2520556 C6.96441505,20.3605168 7.01429138,20.4626446 7.09741861,20.5323131 C7.17025389,20.5932731 7.2605063,20.626524 7.35392546,20.626524 C7.36896753,20.626524 7.38321791,20.6257323 7.39746829,20.6241489 L13.5187986,19.944089 L17.5809489,20.6209821 C17.6031161,20.6249406 17.6244917,20.626524 17.6458673,20.626524 C17.834289,20.626524 18.0013351,20.4911453 18.0353777,20.2995569 L18.1897568,19.4255335 L21.6478492,19.0415649 C21.8568548,19.018606 22.011234,18.8357261 21.9993586,18.6259288 L21.2076708,4.37475617 Z M17.4621957,18.9948553 L17.324442,19.7746679 L12.1460119,18.9125198 L7.3254247,18.1089567 C7.3254247,18.1089567 7.3254247,18.1089567 7.32463301,18.1089567 L3.85466525,17.5302329 L6.09197506,4.85135224 L19.5617518,7.09578724 L17.4621957,18.9948553 Z M6.89316315,11.912416 L16.3934171,13.4957917 C16.4155844,13.4997501 16.4369599,13.5013335 16.4583355,13.5013335 C16.6483406,13.5013335 16.8161784,13.3643715 16.8486376,13.170408 C16.8850553,12.9550689 16.738593,12.7508134 16.5232539,12.7151875 L7.02299995,11.1318118 C6.80845255,11.0930191 6.6034054,11.2418564 6.56777945,11.4571955 C6.5321535,11.6725346 6.67782406,11.8767901 6.89316315,11.912416 Z M6.49731923,14.0895575 L15.9975732,15.6729332 C16.0197405,15.6768916 16.041116,15.678475 16.0632833,15.678475 C16.2532884,15.678475 16.4211262,15.541513 16.4535854,15.3475495 C16.4892113,15.1322104 16.3427491,14.927955 16.12741,14.892329 L6.62715604,13.3089533 C6.41102526,13.271744 6.20756149,13.4189979 6.17193553,13.634337 C6.13630958,13.8496761 6.28198014,14.0539316 6.49731923,14.0895575 Z" id="Shape"></path>
        </g>
    </g>
</svg>