<?xml version="1.0" encoding="UTF-8"?>
<svg width="24px" height="24px" viewBox="0 0 24 24" version="1.1" xmlns="http://www.w3.org/2000/svg" xmlns:xlink="http://www.w3.org/1999/xlink">
    <!-- Generator: Sketch 48.2 (47327) - http://www.bohemiancoding.com/sketch -->
    <title>Basic HTTP authorization</title>
    <desc>Created with Sketch.</desc>
    <defs></defs>
    <g id="Step-icons" stroke="none" stroke-width="1" fill="none" fill-rule="evenodd">
        <g id="Basic-HTTP-authorization" fill="#21343E" fill-rule="nonzero">
            <g id="if_lock__safety__security__square_2538730" transform="translate(5.000000, 3.000000)">
                <path d="M11.9411765,7.11936952 L11.9411765,4.65747071 C11.9411765,2.08941649 9.7245232,0 7,0 C4.2754768,0 2.05882353,2.08941649 2.05882353,4.65747071 L2.05882353,7.11952972 C0.753285112,8.30738066 0,9.93775178 0,11.625 C0,15.1387482 3.14176672,18 7,18 C10.8582333,18 14,15.1387482 14,11.625 C14,9.93608093 13.2453829,8.30410766 11.9411765,7.11936952 Z M2.88235294,4.90434035 C2.88235294,2.65956342 4.72946345,0.833333333 7,0.833333333 C9.27053655,0.833333333 11.1176471,2.65956342 11.1176471,4.90434035 L11.1176471,6.79314263 C11.1026935,6.78286494 11.0871115,6.77423267 11.0720825,6.76407422 C10.9511719,6.68235361 10.8287533,6.60385224 10.7058824,6.529667 C9.60235595,5.86939218 8.32177376,5.5216683 7,5.5216683 C5.67825139,5.5216683 4.39764405,5.86939218 3.29411765,6.529667 C3.17034196,6.6044007 3.04709399,6.68352206 2.92532886,6.76591036 C2.91117948,6.77549648 2.89645205,6.78362801 2.88235294,6.79333337 L2.88235294,4.90434035 Z M5.87764541,13.5431598 L10.6316542,9 L11.3575003,9.72584616 L5.87764541,15 L3,12.1223546 L3.730994,11.3965084 L5.87764541,13.5431598 Z" id="Shape"></path>
            </g>
        </g>
    </g>
</svg>