<?xml version="1.0" encoding="UTF-8"?>
<svg width="24px" height="24px" viewBox="0 0 24 24" version="1.1" xmlns="http://www.w3.org/2000/svg" xmlns:xlink="http://www.w3.org/1999/xlink">
    <!-- Generator: Sketch 46.2 (44496) - http://www.bohemiancoding.com/sketch -->
    <title>keypad_input</title>
    <desc>Created with Sketch.</desc>
    <defs></defs>
    <g id="Step-icons" stroke="none" stroke-width="1" fill="none" fill-rule="evenodd">
        <g id="keypad_input" fill-rule="nonzero" fill="#21343E">
            <path d="M5.5,4 L6.5,4 L6.5,4 C7.05228475,4 7.5,4.44771525 7.5,5 L7.5,5 C7.5,5.55228475 7.05228475,6 6.5,6 L5.5,6 C4.94771525,6 4.5,5.55228475 4.5,5 L4.5,5 L4.5,5 C4.5,4.44771525 4.94771525,4 5.5,4 L5.5,4 Z M9.5,4 L10.5,4 C11.0522847,4 11.5,4.44771525 11.5,5 L11.5,5 C11.5,5.55228475 11.0522847,6 10.5,6 L9.5,6 C8.94771525,6 8.5,5.55228475 8.5,5 L8.5,5 L8.5,5 C8.5,4.44771525 8.94771525,4 9.5,4 Z M13.5,4 L14.5,4 L14.5,4 C15.0522847,4 15.5,4.44771525 15.5,5 L15.5,5 C15.5,5.55228475 15.0522847,6 14.5,6 L13.5,6 C12.9477153,6 12.5,5.55228475 12.5,5 L12.5,5 L12.5,5 C12.5,4.44771525 12.9477153,4 13.5,4 Z M5.5,7 L6.5,7 L6.5,7 C7.05228475,7 7.5,7.44771525 7.5,8 C7.5,8.55228475 7.05228475,9 6.5,9 L5.5,9 C4.94771525,9 4.5,8.55228475 4.5,8 C4.5,7.44771525 4.94771525,7 5.5,7 L5.5,7 Z M9.5,7 L10.5,7 C11.0522847,7 11.5,7.44771525 11.5,8 C11.5,8.55228475 11.0522847,9 10.5,9 L9.5,9 C8.94771525,9 8.5,8.55228475 8.5,8 C8.5,7.44771525 8.94771525,7 9.5,7 Z M13.5,7 L14.5,7 L14.5,7 C15.0522847,7 15.5,7.44771525 15.5,8 C15.5,8.55228475 15.0522847,9 14.5,9 L13.5,9 C12.9477153,9 12.5,8.55228475 12.5,8 C12.5,7.44771525 12.9477153,7 13.5,7 Z M5.5,10 L6.5,10 L6.5,10 C7.05228475,10 7.5,10.4477153 7.5,11 C7.5,11.5522847 7.05228475,12 6.5,12 L5.5,12 C4.94771525,12 4.5,11.5522847 4.5,11 C4.5,10.4477153 4.94771525,10 5.5,10 L5.5,10 Z M9.5,10 L10.5,10 C11.0522847,10 11.5,10.4477153 11.5,11 C11.5,11.5522847 11.0522847,12 10.5,12 L9.5,12 C8.94771525,12 8.5,11.5522847 8.5,11 C8.5,10.4477153 8.94771525,10 9.5,10 Z M19.3782609,16.0423529 C19.393664,16.1327475 19.6686004,17.6895261 19.3376243,19.1928422 C19.2080786,19.7812473 12.1723873,20.3212834 11.4865672,19.6513369 C10.3292458,18.5167914 9.59103671,17.4027807 9.56007956,17.3565775 C9.47197072,17.2231016 9.481496,17.0434225 9.58389275,16.9227807 C9.94823468,16.4915508 10.3792536,16.2708021 10.8650428,16.2708021 C11.5842014,16.2708021 12.1652434,16.7764706 12.2485896,16.8534759 L12.6772271,17.2102674 L12.7034216,12.9364706 L12.7034216,11.1858824 C12.7034216,11.1730481 12.705803,11.1627807 12.705803,11.1499465 C12.7367601,10.5031016 13.2249307,10 13.8297859,10 C14.4417851,10 14.9418622,10.5339037 14.9537688,11.191016 L15.2895349,14.1659893 C15.3824064,14.1890909 15.4800405,14.2096257 15.5800559,14.2327273 C16.3563662,14.4072727 17.4184348,14.6485561 19.2282378,15.8113369 C19.3068214,15.8626738 19.3615917,15.9448128 19.3782609,16.0423529 Z" id="Combined-Shape"></path>
        </g>
    </g>
</svg>