<?xml version="1.0" encoding="UTF-8"?>
<svg width="24px" height="24px" viewBox="0 0 24 24" version="1.1" xmlns="http://www.w3.org/2000/svg" xmlns:xlink="http://www.w3.org/1999/xlink">
    <!-- Generator: Sketch 48.2 (47327) - http://www.bohemiancoding.com/sketch -->
    <title>Normalize phone number</title>
    <desc>Created with Sketch.</desc>
    <defs></defs>
    <g id="Step-icons" stroke="none" stroke-width="1" fill="none" fill-rule="evenodd">
        <g id="Normalize-phone-number" fill="#21343E" fill-rule="nonzero">
            <g id="noun_315347_cc-(1)" transform="translate(5.000000, 3.000000)">
                <g id="Group">
                    <path d="M12.219491,0.217582418 C11.5167727,0.336263736 10.970214,0.989010989 10.970214,0.989010989 C10.970214,0.989010989 10.4431752,0.356043956 9.74045691,0.237362637 C8.80349913,0.0791208791 8.00318103,0.553846154 8.1007808,2.03736264 C8.21790052,3.91648352 10.970214,5.4989011 10.970214,5.4989011 C10.970214,5.4989011 13.7225275,3.8967033 13.8396472,2.03736264 C13.937247,0.553846154 13.1369289,0.0791208791 12.219491,0.217582418 Z" id="Shape"></path>
                    <path d="M5.19230769,6.42857143 C5.19230769,6.42857143 5.21182765,6.42857143 5.21182765,6.42857143 C5.28990746,6.40879121 5.32894737,6.34945055 5.30942741,6.27032967 C5.30942741,6.23076923 5.11422788,5.38021978 5.79742626,5.16263736 C6.10974552,5.06373626 6.32446501,5.2021978 6.57822441,5.36043956 C6.89054367,5.55824176 7.22238288,5.77582418 7.76894158,5.51868132 C8.74493927,5.08351648 8.6082996,4.43076923 8.6082996,4.39120879 C8.58877964,4.31208791 8.53021978,4.27252747 8.45213997,4.29230769 C8.37406015,4.31208791 8.33502024,4.37142857 8.3545402,4.45054945 C8.3545402,4.45054945 8.45213997,4.92527473 7.65182186,5.28131868 C7.24190283,5.45934066 6.98814344,5.32087912 6.71486408,5.12307692 C6.44158473,4.96483516 6.14878543,4.76703297 5.71934644,4.90549451 C5.01662811,5.14285714 4.9775882,5.95384615 5.07518797,6.32967033 C5.09470792,6.38901099 5.13374783,6.42857143 5.19230769,6.42857143 Z" id="Shape"></path>
                    <path d="M8.23742047,11.6505495 C8.08126084,11.6505495 7.94462117,11.6703297 7.80798149,11.7098901 L7.80798149,11.6901099 L7.593262,11.8087912 C7.593262,11.8087912 7.53470214,11.8483516 7.47614228,11.8879121 C7.45662233,11.9076923 7.43710237,11.9274725 7.41758242,11.9274725 C7.00766339,12.2241758 6.0316657,13.0945055 5.89502603,14.6571429 C5.87550607,14.9142857 5.66078658,15.1318681 5.40702718,15.1318681 C5.32894737,15.1318681 5.27038751,15.1120879 5.21182765,15.0923077 C4.21631001,14.6175824 3.51359167,13.6483516 3.10367264,12.9164835 C2.94751301,12.6395604 2.81087334,12.1054945 2.69375361,11.3934066 C2.67423366,11.2351648 2.6156738,10.6813187 2.83039329,10.6417582 L2.90847311,10.621978 C3.51359167,10.4835165 4.66526894,10.2461538 5.15326778,9.35604396 C5.30942741,9.11868132 5.42654714,8.8021978 5.46558704,8.46593407 C5.54366686,7.85274725 5.38750723,7.16043956 5.05566802,6.52747253 C4.52862927,5.53846154 3.63071139,4.86593407 2.79135338,4.86593407 C2.59615385,4.86593407 2.42047426,4.90549451 2.26431463,4.96483516 L2.24479468,4.94505495 L2.08863505,5.04395604 C2.08863505,5.04395604 2.08863505,5.04395604 2.0691151,5.04395604 C1.95199537,5.12307692 1.83487565,5.2021978 1.73727588,5.3010989 C1.26879699,5.71648352 0.487998843,6.58681319 0.292799306,7.97142857 C-0.0390399075,10.2659341 0.429438982,12.6395604 1.54207634,14.3010989 C2.45951417,15.6857143 4.4310295,18 7.26142279,18 C7.26142279,18 7.26142279,18 7.26142279,18 C8.27646038,18 9.33053788,17.6835165 10.3650954,17.0901099 C10.3650954,17.0901099 10.3650954,17.0901099 10.3650954,17.0901099 C10.3650954,17.0901099 10.3650954,17.0901099 10.3650954,17.0901099 C10.3650954,17.0901099 10.3650954,17.0901099 10.3650954,17.0901099 L10.540775,16.9912088 C11.3410931,16.3978022 11.399653,14.9340659 10.6774147,13.5494505 C10.0918161,12.421978 9.09629844,11.6505495 8.23742047,11.6505495 Z M1.65919607,6.44835165 C1.71775593,5.93406593 1.93247542,5.55824176 2.28383459,5.36043956 C2.43999422,5.28131868 2.59615385,5.24175824 2.79135338,5.24175824 C3.49407172,5.24175824 4.25534991,5.83516484 4.7238288,6.70549451 C5.01662811,7.25934066 5.15326778,7.87252747 5.09470792,8.40659341 C5.03614806,8.92087912 4.82142857,9.2967033 4.4700694,9.49450549 C4.31390977,9.57362637 4.15775014,9.61318681 3.96255061,9.61318681 C3.25983227,9.61318681 2.49855408,9.01978022 2.03007519,8.14945055 C1.73727588,7.5956044 1.60063621,6.98241758 1.65919607,6.44835165 Z M8.74493927,17.0505495 C8.45213997,16.9120879 7.0857432,16.021978 6.81246385,14.221978 C6.75390399,14.5384615 7.06622325,16.1010989 8.08126084,17.0703297 C8.15934066,17.1494505 8.12030075,17.2879121 8.00318103,17.3076923 C7.37854251,17.4065934 5.85598612,17.4857143 4.23582996,16.5758242 C3.1622325,15.8241758 2.3619144,14.8153846 1.87391556,14.0637363 C0.292799306,11.7098901 0.566078658,8.82197802 0.683198381,8.01098901 C0.780798149,7.37802198 1.01503759,6.84395604 1.28831695,6.44835165 C1.22975709,7.04175824 1.36639676,7.71428571 1.69823597,8.32747253 C2.12767496,9.15824176 2.83039329,9.75164835 3.53311163,9.92967033 C3.43551186,9.96923077 3.33791209,9.96923077 3.27935223,9.96923077 C3.1231926,9.92967033 2.14719491,9.83076923 1.28831695,7.55604396 C1.44447658,8.44615385 2.03007519,9.59340659 2.75231348,10.0483516 C2.79135338,10.0681319 2.79135338,10.1274725 2.75231348,10.1472527 C2.67423366,10.1868132 2.57663389,10.2659341 2.51807403,10.3648352 C2.3619144,10.5230769 2.24479468,10.8197802 2.34239445,11.432967 C2.45951417,12.2043956 2.6156738,12.7582418 2.79135338,13.0945055 C3.22079237,13.8659341 3.98207056,14.9142857 5.05566802,15.4285714 C5.17278774,15.4879121 5.28990746,15.5076923 5.42654714,15.5076923 C5.87550607,15.5076923 6.24638519,15.1516484 6.2854251,14.6769231 C6.34398496,14.0241758 6.55870445,13.5098901 6.83198381,13.1142857 C6.83198381,13.1538462 6.81246385,13.1934066 6.81246385,13.2527473 C6.77342394,13.9054945 6.94910353,14.6571429 7.3004627,15.3494505 C7.72990168,16.1802198 8.37406015,16.8131868 9.03773858,17.0901099 C8.94013881,17.1098901 8.84253904,17.1098901 8.74493927,17.0505495 Z M10.1894158,16.7340659 C10.0527762,16.8131868 9.89661654,16.8527473 9.74045691,16.8527473 C9.01821862,16.8527473 8.15934066,16.1604396 7.65182186,15.1714286 C7.31998265,14.5384615 7.16382302,13.8857143 7.20286293,13.2923077 C7.24190283,12.7384615 7.45662233,12.3428571 7.78846154,12.1450549 C7.92510121,12.0659341 8.08126084,12.0263736 8.23742047,12.0263736 C8.95965876,12.0263736 9.81853673,12.7186813 10.3260555,13.7076923 C10.989734,14.9934066 10.9311741,16.3384615 10.1894158,16.7340659 Z" id="Shape"></path>
                    <path d="M3.65023135,8.48571429 C3.72831116,8.48571429 3.80639098,8.46593407 3.88447079,8.42637363 C4.29438982,8.20879121 4.37246964,7.61538462 4.09919028,7.06153846 C3.88447079,6.64615385 3.51359167,6.38901099 3.1622325,6.38901099 C3.04511278,6.38901099 2.94751301,6.40879121 2.84991324,6.46813187 C2.3619144,6.72527473 2.65471371,7.2989011 2.8694332,7.71428571 C3.08415269,8.07032967 3.29887218,8.48571429 3.65023135,8.48571429 Z M3.04511278,6.78461538 C3.08415269,6.76483516 3.1231926,6.74505495 3.1622325,6.74505495 C3.376952,6.74505495 3.61119144,6.94285714 3.74783112,7.21978022 C3.9235107,7.57582418 3.90399075,7.95164835 3.70879121,8.07032967 C3.68927126,8.09010989 3.6697513,8.09010989 3.65023135,8.09010989 C3.53311163,8.09010989 3.33791209,7.71428571 3.22079237,7.51648352 C2.96703297,7.02197802 2.92799306,6.84395604 3.04511278,6.78461538 Z" id="Shape"></path>
                    <path d="M9.11581839,14.8351648 C8.99869867,14.8351648 8.86205899,14.7362637 8.78397918,14.5978022 C8.68637941,14.4 8.72541932,14.1824176 8.88157895,14.1032967 C8.92061885,14.0835165 8.97917872,14.0637363 9.01821862,14.0637363 C9.1548583,14.0637363 9.27197802,14.1626374 9.35005784,14.3010989 C9.38909774,14.3802198 9.4086177,14.4593407 9.4086177,14.5384615 C9.38909774,14.6571429 9.35005784,14.756044 9.25245807,14.7956044 C9.21341816,14.8153846 9.1548583,14.8351648 9.11581839,14.8351648 Z M9.11581839,13.7076923 C8.99869867,13.7076923 8.86205899,13.6285714 8.78397918,13.4703297 C8.74493927,13.3912088 8.72541932,13.3120879 8.72541932,13.232967 C8.74493927,13.1142857 8.78397918,13.0153846 8.88157895,12.9758242 C8.92061885,12.956044 8.97917872,12.9362637 9.01821862,12.9362637 C9.1548583,12.9362637 9.27197802,13.0351648 9.35005784,13.1736264 C9.44765761,13.3714286 9.4086177,13.589011 9.25245807,13.6681319 C9.21341816,13.6879121 9.1548583,13.7076923 9.11581839,13.7076923 Z M8.19838057,13.9846154 C8.08126084,13.9846154 7.94462117,13.9054945 7.86654135,13.7472527 C7.76894158,13.5494505 7.80798149,13.3318681 7.96414112,13.2527473 C8.00318103,13.232967 8.06174089,13.2131868 8.1007808,13.2131868 C8.23742047,13.2131868 8.3545402,13.3120879 8.43262001,13.4505495 C8.47165992,13.5296703 8.49117987,13.6087912 8.49117987,13.6879121 C8.47165992,13.8065934 8.43262001,13.9054945 8.33502024,13.9450549 C8.29598034,13.9648352 8.23742047,13.9846154 8.19838057,13.9846154 Z M9.9551764,14.7362637 C10.0918161,14.7362637 10.2089358,14.8153846 10.2870156,14.9736264 C10.3846154,15.1714286 10.3455755,15.389011 10.1894158,15.4681319 C10.1503759,15.4879121 10.0918161,15.5076923 10.0527762,15.5076923 C9.9161365,15.5076923 9.79901677,15.4087912 9.72093696,15.2703297 C9.68189705,15.1912088 9.6623771,15.1120879 9.6623771,15.032967 C9.68189705,14.9142857 9.72093696,14.8153846 9.81853673,14.7758242 C9.85757663,14.756044 9.9161365,14.7362637 9.9551764,14.7362637 Z M9.1548583,15.3098901 C9.29149798,15.3098901 9.4086177,15.4087912 9.48669751,15.5472527 C9.58429728,15.7450549 9.54525737,15.9626374 9.38909774,16.0417582 C9.35005784,16.0615385 9.29149798,16.0813187 9.25245807,16.0813187 C9.11581839,16.0813187 8.99869867,15.9824176 8.92061885,15.843956 C8.88157895,15.7648352 8.86205899,15.6857143 8.86205899,15.6065934 C8.88157895,15.4879121 8.92061885,15.389011 9.01821862,15.3494505 C9.05725853,15.3296703 9.11581839,15.3098901 9.1548583,15.3098901 Z M8.23742047,14.4395604 C8.37406015,14.4395604 8.49117987,14.5186813 8.56925969,14.6769231 C8.6082996,14.756044 8.62781955,14.8351648 8.62781955,14.9142857 C8.6082996,15.032967 8.56925969,15.1318681 8.47165992,15.1714286 C8.43262001,15.1912088 8.37406015,15.210989 8.33502024,15.210989 C8.19838057,15.210989 8.08126084,15.1120879 8.00318103,14.9736264 C7.94462117,14.8747253 7.92510121,14.756044 7.96414112,14.6571429 C7.98366108,14.578022 8.04222094,14.5186813 8.1007808,14.4791209 C8.13982071,14.4593407 8.19838057,14.4395604 8.23742047,14.4395604 Z M9.9161365,14.4 C9.79901677,14.4 9.6623771,14.3208791 9.58429728,14.1626374 C9.48669751,13.9648352 9.52573742,13.7472527 9.68189705,13.6681319 C9.72093696,13.6483516 9.77949682,13.6285714 9.81853673,13.6285714 C9.9551764,13.6285714 10.0722961,13.7274725 10.1503759,13.8659341 C10.1894158,13.9450549 10.2089358,14.0241758 10.2089358,14.1032967 C10.1894158,14.221978 10.1503759,14.3208791 10.0527762,14.3604396 C10.0137363,14.3802198 9.9551764,14.4 9.9161365,14.4 Z" id="Combined-Shape"></path>
                </g>
            </g>
        </g>
    </g>
</svg>