<?xml version="1.0" encoding="UTF-8"?>
<svg width="24px" height="24px" viewBox="0 0 24 24" version="1.1" xmlns="http://www.w3.org/2000/svg" xmlns:xlink="http://www.w3.org/1999/xlink">
    <!-- Generator: Sketch 48.2 (47327) - http://www.bohemiancoding.com/sketch -->
    <title>Canvas label or note</title>
    <desc>Created with Sketch.</desc>
    <defs></defs>
    <g id="Step-icons" stroke="none" stroke-width="1" fill="none" fill-rule="evenodd">
        <g id="Canvas-label-or-note" fill="#21343E">
            <path d="M11.5043115,19.8763904 L6.7947206,20.4146293 C6.78047098,20.415421 6.7654297,20.4162126 6.75038843,20.4162126 C6.66014078,20.4162126 6.57147642,20.3853384 6.50101993,20.3275483 C6.41868874,20.26105 6.3664401,20.1628859 6.3561487,20.057597 L6.28326136,19.280132 L2.35121145,18.8305456 C2.24592253,18.8186709 2.15013336,18.764839 2.08521839,18.6817162 C2.01951176,18.5985933 1.99022086,18.4925128 2.0028872,18.3880155 L3.58617925,5.72167904 C3.61309522,5.50555968 3.80150697,5.3511887 4.02633444,5.37731302 L11.502213,6.25710588 L15.2822822,5.81235684 C15.3646514,5.77157789 15.4583457,5.76121677 15.5464699,5.78127348 L15.5685335,5.77867756 C15.7814863,5.74780336 15.9825644,5.90850751 16.0078971,6.12541852 C16.0340214,6.34232953 15.8788588,6.53944939 15.6611561,6.56478206 L15.6145053,6.57026724 L13.7588307,8.42594187 C13.682041,8.50273154 13.5807104,8.54152219 13.4793797,8.54152219 C13.378049,8.54152219 13.2767183,8.50273154 13.199137,8.42594187 C13.044766,8.2715709 13.044766,8.02061911 13.199137,7.86624813 L14.3459631,6.71942196 L11.5891231,7.04357019 C11.5665094,7.04832957 11.5431238,7.05113083 11.5191289,7.05180008 L5.99278318,7.70158576 L7.03966612,18.8668491 C7.04144988,18.8793105 7.04264139,18.8919341 7.04321392,18.9046872 L7.10662914,19.581026 L16.302462,18.5298985 C16.3052851,18.5295441 16.3081159,18.5292204 16.310954,18.5289278 L20.1616638,18.0887733 L18.6765358,6.21012464 L17.9759291,6.29245583 C17.7598097,6.31937179 17.5618982,6.16262588 17.5365656,5.94571487 C17.5104412,5.72880386 17.6656039,5.531684 17.8833065,5.50635132 L18.9741947,5.37810467 C19.1871475,5.35277199 19.3866423,5.50635132 19.4135583,5.72247069 L20.9968503,18.3888071 C21.0103083,18.4933044 20.9802258,18.599385 20.9145192,18.6825078 C20.8496042,18.7656306 20.753815,18.8186709 20.6485261,18.8313373 L16.7172566,19.2806252 L16.6443805,20.057597 C16.6340891,20.1636775 16.5818404,20.26105 16.4995093,20.3275483 C16.4290528,20.3853384 16.3403884,20.4162126 16.2501408,20.4162126 C16.2350995,20.4162126 16.2200582,20.415421 16.2050169,20.4138377 L11.5043115,19.8763904 Z M14.9907697,19.477938 L15.8939,19.581026 L15.9133754,19.3724973 L14.9907697,19.477938 Z M8.11563984,6.65555763 L4.32399335,6.209333 L2.8388654,18.0895649 L6.20778389,18.475039 L5.16867966,7.39126052 C5.14888851,7.17672444 5.30325949,6.98593775 5.51621227,6.96139672 L8.11563984,6.65555763 Z" id="Combined-Shape" fill-rule="nonzero"></path>
            <path d="M16.6459638,6.95823014 C15.5542839,6.95823014 14.6668487,6.0700033 14.6668487,4.97911507 C14.6668487,3.88822684 15.5542839,3 16.6459638,3 C17.7376436,3 18.6250788,3.88822684 18.6250788,4.97911507 C18.6250788,6.0700033 17.7376436,6.95823014 16.6459638,6.95823014 Z M16.6459638,3.79164603 C15.9912725,3.79164603 15.4584947,4.3244238 15.4584947,4.97911507 C15.4584947,5.63380633 15.9912725,6.16658411 16.6459638,6.16658411 C17.300655,6.16658411 17.8334328,5.63380633 17.8334328,4.97911507 C17.8334328,4.3244238 17.300655,3.79164603 16.6459638,3.79164603 Z" id="Combined-Shape"></path>
        </g>
    </g>
</svg>