<?xml version="1.0" encoding="UTF-8"?>
<svg width="24px" height="24px" viewBox="0 0 24 24" version="1.1" xmlns="http://www.w3.org/2000/svg" xmlns:xlink="http://www.w3.org/1999/xlink">
    <!-- Generator: Sketch 48.2 (47327) - http://www.bohemiancoding.com/sketch -->
    <title>Validate Credit Card Date expiration</title>
    <desc>Created with Sketch.</desc>
    <defs></defs>
    <g id="Step-icons" stroke="none" stroke-width="1" fill="none" fill-rule="evenodd">
        <g id="Validate-Credit-Card-Date-expiration" fill="#21343E" fill-rule="nonzero">
            <g id="credit-card" transform="translate(2.000000, 4.000000)">
                <path d="M19.5103033,0.489514317 C19.1839482,0.163159277 18.791629,0 18.333382,0 L1.66665451,0 C1.20833455,0 0.816088264,0.163122793 0.489514317,0.489514317 C0.163122793,0.815942325 0,1.20818861 0,1.66654505 L0,14.3330244 C0,14.7914903 0.163122793,15.1837731 0.489514317,15.5101646 C0.816088264,15.8365561 1.20833455,15.9997519 1.66665451,15.9997519 L18.333382,15.9997519 C18.791629,15.9997519 19.1839117,15.8365561 19.5103033,15.5101646 C19.8366583,15.1838096 20,14.7915268 20,14.3330244 L20,1.66654505 C20,1.20818861 19.8366583,0.815942325 19.5103033,0.489514317 Z M18.6665232,14.3332798 C18.6665232,14.4236887 18.6335775,14.5015834 18.5676133,14.5677666 C18.5016856,14.6334389 18.4235355,14.6663845 18.333382,14.6663845 L1.66665451,14.6663845 C1.57642801,14.6663845 1.49827793,14.6334389 1.43231371,14.5675112 C1.36638598,14.5013645 1.33336739,14.4234333 1.33336739,14.3330244 L1.33336739,7.99987595 L18.6665596,7.99987595 L18.6665596,14.3332798 L18.6665232,14.3332798 Z M18.6665232,3.99973731 L1.3333309,3.99973731 L1.3333309,1.66639911 C1.3333309,1.57613613 1.36624004,1.49816847 1.43227722,1.43205832 C1.49827793,1.36627652 1.57642801,1.33325793 1.66661802,1.33325793 L18.3333455,1.33325793 C18.423499,1.33325793 18.5016491,1.36613059 18.5675768,1.43205832 C18.6335411,1.49816847 18.6664867,1.57613613 18.6664867,1.66639911 L18.6665232,3.99973731 Z M2.66673477,11.9997227 L5.33336009,11.9997227 L5.33336009,13.3331631 L2.66673477,13.3331631 L2.66673477,11.9997227 Z M6.66676396,11.9997227 L10.6667202,11.9997227 L10.6667202,13.3331631 L6.66676396,13.3331631 L6.66676396,11.9997227 Z" id="Combined-Shape"></path>
            </g>
        </g>
    </g>
</svg>