<!-- Generated by IcoMoon.io -->
<svg version="1.1" xmlns="http://www.w3.org/2000/svg" width="102" height="32" viewBox="0 0 102 32">
<title>logo</title>
<path d="M100.613 12.108l-5.65 0.231 0.173 4.324c-0.231-0.288-0.461-0.577-0.692-0.865v0c-0.346-0.404-0.634-0.75-0.98-1.211v0c-0.346-0.404-0.692-0.807-1.038-1.211 0 0 0 0 0 0-0.288-0.346-0.634-0.75-0.923-1.095l-0.404-0.461-6.688-0.115v3.459c-1.153-1.211-3.056-2.018-5.593-2.364h-0.115c-3.459-0.115-5.939 0.807-7.38 2.825-0.346 0.461-0.634 0.923-0.923 1.326-0.058-0.173-0.173-0.288-0.231-0.461v0c-0.173-0.346-0.404-0.692-0.692-0.98v0c-1.153-1.441-3.114-2.306-5.881-2.71h-0.173c-3.402-0.115-5.823 0.75-7.323 2.768l0.173-4.786 0.058-1.96 8.014-0.115 0.461-8.245-22.89 0.634 0.404 6.977 5.881 0.577-0.173 1.441-5.362-0.634-0.346 1.211c-0.461 1.384-0.923 2.883-1.441 4.555v0.058c-0.058 0.231-0.173 0.404-0.231 0.634v0c-0.058 0.173-0.115 0.346-0.173 0.577-0.115-0.173-0.288-0.404-0.404-0.577-0.115-0.115-0.173-0.288-0.288-0.404-0.98-1.384-1.787-2.479-2.306-3.287l-1.268-1.903-3.402 5.823c-0.923-2.941-1.903-5.42-2.825-7.438l-0.404-0.923-6.4 0.519 1.73 5.823c-0.98-0.461-2.191-0.807-3.632-1.038h-0.115c-0.288 0-0.519 0-0.807 0 0.807-1.73 1.153-3.632 0.98-5.65-0.058-0.288-0.115-0.519-0.173-0.807v-0.173l-0.058-0.173c-2.249-5.132-7.611-7.15-16.144-5.939-1.326 0.173-2.479 0.346-3.402 0.461l-1.557 0.173 6.112 30.962 8.36-2.133v-0.115c0.98 0.577 2.306 0.98 3.863 1.268h0.115c2.537 0.288 4.555-0.173 6.054-1.268v0c1.499-1.096 2.595-2.364 3.287-3.863l0.058-0.058c0.115-0.288 0.231-0.519 0.346-0.75l1.96 6.573 6.342-0.807 1.441-4.267 2.537 3.69 5.477-0.173-0.058 0.865 9.456 0.404 0.115-2.883c1.038 1.038 2.768 1.787 5.132 2.249h0.115c2.537 0.288 4.555-0.173 5.996-1.268v0c1.211-0.865 2.133-1.845 2.825-2.941 0.519 2.133 2.595 3.575 6.285 4.267h0.115c2.537 0.288 4.555-0.173 6.054-1.268v0c0.923-0.692 1.73-1.441 2.364-2.306v3.517l6.227 0.404 0.173-1.384c0.115-0.923 0.288-2.018 0.461-3.229l3.517 4.786 7.553 0.404-1.672-19.546zM7.265 29.059l-5.535-26.868c0.98-0.115 2.076-0.231 3.459-0.404 7.726-1.038 12.569 0.634 14.587 4.901 0.461 2.018-0.115 3.863-1.672 5.477-2.364 2.479-4.843 4.44-7.495 5.939v0 0l2.133 9.571-5.477 1.384zM27.56 21.16c-0.115 0.865-0.461 1.903-1.038 3.171-0.634 1.268-1.557 2.306-2.883 3.171-1.268 0.865-2.941 1.211-5.074 0.98-2.998-0.519-4.728-1.614-5.189-3.171-0.346-1.038-0.461-2.018-0.519-2.941 0-0.519 0-0.98 0.058-1.441 0-0.288 0-0.577 0.058-0.865 0.058-0.231 0.058-0.461 0.115-0.692 0.115-0.288 0.231-0.634 0.346-0.923 0.288-0.75 0.75-1.441 1.326-2.191 1.268-1.557 3.344-2.306 6.227-2.191 2.364 0.288 4.036 1.038 5.016 2.133 0.173 0.231 0.346 0.461 0.519 0.692 0.115 0.231 0.288 0.461 0.404 0.75 0 0 0 0 0 0 0.346 0.692 0.519 1.384 0.577 2.076 0.115 0.519 0.115 0.98 0.058 1.441zM46.991 15.164c-0.058 0.231-0.115 0.519-0.115 0.807-0.115 0.692-0.231 1.384-0.346 2.133-0.461 2.71-1.038 5.881-1.73 9.571l-3.575 0.115-3.748-5.189-2.018 5.881-4.324 0.404-6.054-19.604 3.575-0.288c1.038 2.133 2.076 4.843 3.114 7.957 0 0 0 0.058 0 0.058 0.173 0.461 0.288 0.98 0.461 1.441 0.058 0.173 0.115 0.346 0.173 0.519l3.921-6.4c0.577 0.807 1.326 1.845 2.364 3.229 0.115 0.115 0.173 0.288 0.288 0.404 0.231 0.346 0.519 0.692 0.75 1.038 0.404 0.519 0.865 1.153 1.326 1.73 0.231-0.75 0.461-1.441 0.692-2.076 0.115-0.346 0.231-0.692 0.346-1.095 0.058-0.231 0.115-0.461 0.231-0.634 0.519-1.614 0.98-3.114 1.441-4.44l3.921 0.404c-0.115 0.923-0.288 1.96-0.519 3.114-0.058 0.288-0.115 0.577-0.173 0.923zM54.832 8.879v0l-0.923 19.834-6.458-0.231 2.018-17.932h0.058l0.173-1.672v-0.231l0.115-1.672-6.573-0.577-0.231-3.978 20.353-0.519-0.288 5.016-8.187 0.115-0.058 1.845zM69.708 20.814c-0.115 0.865-0.461 1.903-1.038 3.171-0.634 1.268-1.557 2.306-2.883 3.171-1.268 0.865-2.941 1.211-5.074 0.98-2.998-0.519-4.728-1.614-5.189-3.171-0.346-1.038-0.519-2.018-0.519-2.941 0-0.519 0-0.98 0.115-1.441 0-0.288 0-0.577 0.058-0.865 0.058-0.519 0.231-1.096 0.461-1.672 0.288-0.75 0.75-1.441 1.326-2.191 1.268-1.557 3.344-2.306 6.227-2.191 2.364 0.288 4.036 1.038 5.016 2.133 0.231 0.231 0.404 0.461 0.519 0.692s0.288 0.461 0.404 0.75c0.346 0.692 0.519 1.384 0.577 2.076 0 0.173 0.058 0.288 0.058 0.461 0.058 0.404 0 0.75-0.058 1.038zM84.987 20.814c-0.115 0.865-0.461 1.903-1.038 3.171-0.634 1.268-1.557 2.306-2.883 3.171-1.268 0.865-2.941 1.211-5.074 0.98-2.998-0.519-4.728-1.614-5.189-3.171-0.346-1.038-0.519-2.018-0.519-2.941 0-0.519 0-0.98 0.115-1.441 0-0.288 0-0.577 0.058-0.865 0 0 0-0.058 0-0.058 0.058-0.519 0.231-1.038 0.461-1.557 0.288-0.75 0.75-1.441 1.326-2.191 1.268-1.557 3.344-2.306 6.227-2.191 2.364 0.288 4.036 1.038 5.016 2.133 0.231 0.231 0.404 0.461 0.519 0.692s0.288 0.461 0.346 0.75c0.058 0.058 0.058 0.173 0.115 0.231 0.288 0.634 0.461 1.268 0.519 1.845 0.115 0.519 0.115 0.98 0 1.441zM90.465 21.91c-0.461 2.652-0.807 4.786-1.038 6.458l-3.575-0.231-0.058-15.395 4.555 0.058c0.346 0.346 0.634 0.692 0.923 1.038 0.346 0.404 0.692 0.807 1.038 1.153 0.346 0.404 0.692 0.75 0.98 1.153 1.211 1.441 2.249 2.71 3.056 3.805 0.115 0.173 0.231 0.288 0.346 0.461l-0.231-7.15 2.825-0.115 1.499 15.798-5.189-0.288-5.132-6.746z"></path>
<path d="M23.582 18.22c-0.058-0.058-0.115-0.058-0.115-0.115-0.404-0.346-0.98-0.577-1.845-0.692-0.173 0-0.288 0-0.404 0-0.461 0-0.807 0.115-1.153 0.231s-0.577 0.288-0.807 0.519c-0.173 0.173-0.288 0.346-0.346 0.519-0.058 0.115-0.173 0.288-0.173 0.404-0.058 0.231-0.115 0.461-0.115 0.692-0.058 0.461 0 0.98 0.173 1.499 0 0 0 0.058 0 0.058 0.173 0.404 0.577 0.692 1.268 0.865 0.231 0.058 0.461 0.115 0.692 0.173 0.058 0 0.115 0 0.173 0 0.75 0.058 1.326-0.058 1.73-0.346 0.461-0.288 0.807-0.692 1.038-1.096 0.115-0.173 0.173-0.404 0.231-0.577s0.115-0.346 0.115-0.519c0.115-0.461-0.058-0.923-0.404-1.441 0-0.058 0-0.115-0.058-0.173zM22.602 20.296v0.173c0 0.058 0 0.115-0.058 0.173v0c-0.058 0.115-0.115 0.231-0.173 0.346-0.115 0.231-0.288 0.404-0.519 0.577-0.231 0.115-0.519 0.115-0.865 0.115h-0.058c0 0 0 0-0.058 0-0.173 0-0.288-0.058-0.461-0.058 0 0 0 0-0.058 0-0.115-0.058-0.231-0.058-0.346-0.058-0.058-0.288-0.115-0.519-0.058-0.75v-0.288c0 0 0-0.058 0-0.058v-0.058c0-0.058 0.058-0.115 0.058-0.173v-0.058c0.058-0.058 0.115-0.173 0.173-0.231v0c0.058-0.058 0.115-0.115 0.231-0.173 0.173-0.058 0.404-0.115 0.634-0.115v0h0.288c0.404 0.058 0.75 0.173 0.98 0.346l0.058 0.058c0.173 0 0.231 0.115 0.231 0.231v0z"></path>
<path d="M12.339 11.877c0.461-0.577 0.634-1.268 0.461-1.903-0.404-0.75-1.268-1.326-2.595-1.614v0c-1.153-0.288-2.364-0.346-3.632-0.173l2.306 6.112c0.519-0.288 1.153-0.692 1.903-1.153 0.75-0.404 1.268-0.865 1.557-1.268zM9.687 12.569l-0.98-2.652c0.404 0 0.807 0.115 1.211 0.173l0.173 0.058c0.634 0.173 1.038 0.404 1.326 0.692 0 0.173-0.058 0.346-0.231 0.577v0c-0.231 0.346-0.634 0.634-1.095 0.98-0.115 0-0.288 0.115-0.404 0.173z"></path>
<path d="M65.845 17.874h-0.115c-0.346-0.404-1.038-0.692-1.96-0.807-0.173 0-0.288 0-0.404 0-0.461 0-0.807 0.115-1.153 0.231s-0.577 0.288-0.807 0.519c-0.288 0.288-0.461 0.634-0.577 0.923-0.058 0.231-0.115 0.461-0.115 0.692-0.058 0.461 0 0.98 0.173 1.499 0 0 0 0.058 0.058 0.058 0 0.058 0.058 0.115 0.058 0.173 0.231 0.288 0.634 0.519 1.211 0.692 0.231 0.058 0.461 0.115 0.692 0.173 0.058 0 0.115 0 0.173 0 0.75 0.058 1.326-0.058 1.787-0.346s0.807-0.692 1.038-1.096c0.058-0.058 0.058-0.115 0.058-0.173 0.058-0.115 0.115-0.231 0.173-0.346 0.058-0.173 0.115-0.346 0.115-0.519 0.115-0.461-0.058-0.923-0.346-1.441l-0.058-0.231zM62.155 21.045v0c0-0.058 0-0.058 0-0.058v0.058zM64.807 20.007l-0.058 0.115c0 0.058 0 0.058 0 0.115v0.058c0 0.058-0.058 0.115-0.058 0.173s-0.058 0.115-0.058 0.173c-0.115 0.173-0.288 0.346-0.519 0.519v0c-0.231 0.115-0.519 0.173-0.865 0.173h-0.058c-0.173-0.058-0.346-0.058-0.519-0.115s-0.288-0.115-0.404-0.115c-0.058-0.231-0.058-0.461-0.058-0.692v-0.346c0 0 0-0.058 0-0.058v0c0.058-0.173 0.173-0.288 0.288-0.461 0.058-0.058 0.173-0.115 0.231-0.173 0.173-0.058 0.404-0.115 0.634-0.115v0h0.231c0.461 0.058 0.75 0.173 0.98 0.346v0.058c0.058 0.115 0.115 0.231 0.173 0.346v0z"></path>
<path d="M81.182 18.047c-0.058-0.058-0.058-0.115-0.115-0.173-0.346-0.404-1.038-0.692-1.96-0.807-0.173 0-0.288 0-0.404 0-0.404 0-0.807 0.115-1.096 0.231-0.346 0.115-0.577 0.288-0.807 0.519-0.288 0.288-0.461 0.634-0.577 0.923 0 0 0 0.058 0 0.058-0.058 0.231-0.115 0.404-0.115 0.634-0.058 0.461 0 0.98 0.173 1.499 0 0 0 0.058 0 0.058 0.173 0.404 0.634 0.692 1.326 0.865 0.231 0.058 0.461 0.115 0.692 0.173 0.058 0 0.115 0 0.173 0 0.75 0.058 1.326-0.058 1.787-0.346s0.807-0.692 1.038-1.096c0.115-0.173 0.173-0.404 0.231-0.519 0.058-0.173 0.115-0.346 0.115-0.519 0-0.461-0.115-0.923-0.461-1.499 0 0.058 0 0.058 0 0zM80.144 20.007v0.115c0 0.058-0.058 0.115-0.058 0.231s-0.058 0.231-0.173 0.346c-0.115 0.231-0.288 0.404-0.461 0.577-0.231 0.115-0.577 0.173-0.923 0.173h-0.115c-0.173-0.058-0.346-0.058-0.519-0.115s-0.288-0.058-0.346-0.058c-0.058-0.288-0.115-0.519-0.058-0.75v-0.288c0-0.058 0-0.058 0-0.058v-0.058c0.058-0.115 0.173-0.288 0.288-0.404v0c0.058-0.058 0.115-0.115 0.231-0.173v0c0.173-0.058 0.404-0.115 0.634-0.115v0h0.231c0.461 0.058 0.75 0.173 0.98 0.346v0.058c0.173-0.058 0.231 0.058 0.288 0.173v0z"></path>
</svg>
