<!-- Generated by IcoMoon.io -->
<svg version="1.1" xmlns="http://www.w3.org/2000/svg" width="32" height="32" viewBox="0 0 32 32">
<title>mobile</title>
<path d="M21.856 1.6h-11.712c-1.184 0-2.144 0.96-2.144 2.144v24.544c0 1.184 0.96 2.144 2.144 2.144h11.744c1.184 0 2.144-0.96 2.144-2.144v-24.544c-0.032-1.184-0.992-2.144-2.176-2.144zM13.856 3.456h4.256c0.16 0 0.256 0.128 0.256 0.256 0 0.16-0.128 0.256-0.256 0.256h-4.256c-0.16 0-0.256-0.128-0.256-0.256s0.128-0.256 0.256-0.256zM16 29.344c-0.576 0-1.056-0.48-1.056-1.056s0.48-1.056 1.056-1.056 1.056 0.48 1.056 1.056c0 0.576-0.48 1.056-1.056 1.056zM22.944 26.144h-13.888v-20.288h13.856v20.288z"></path>
</svg>
