<!-- Generated by IcoMoon.io -->
<svg version="1.1" xmlns="http://www.w3.org/2000/svg" width="32" height="32" viewBox="0 0 32 32">
<title>settings</title>
<path stroke="#000" fill="#000" stroke-width="1" stroke-miterlimit="10" stroke-linecap="butt" stroke-linejoin="miter" d="M16 4c0.652 0 1.322 0.059 2 0.177v2.004l0.728 0.206c0.758 0.215 1.48 0.512 2.145 0.885l0.66 0.369 1.411-1.411c1.090 0.778 2.051 1.739 2.827 2.828l-1.411 1.411 0.369 0.66c0.372 0.666 0.669 1.387 0.884 2.144l0.206 0.727h2.004c0.118 0.679 0.177 1.349 0.177 2s-0.059 1.321-0.177 2h-2.004l-0.206 0.727c-0.215 0.758-0.512 1.479-0.884 2.144l-0.369 0.66 1.411 1.411c-0.777 1.090-1.738 2.051-2.828 2.829l-1.41-1.41-0.66 0.368c-0.666 0.372-1.388 0.669-2.145 0.884l-0.728 0.206v2.004c-0.679 0.118-1.349 0.177-2 0.177s-1.321-0.059-2-0.177v-2.004l-0.727-0.206c-0.757-0.215-1.478-0.512-2.144-0.884l-0.66-0.369-1.411 1.411c-1.091-0.778-2.052-1.738-2.829-2.828l1.411-1.411-0.369-0.66c-0.373-0.667-0.67-1.388-0.884-2.145l-0.206-0.727h-2.004c-0.118-0.678-0.177-1.348-0.177-2s0.059-1.322 0.177-2h2.004l0.206-0.727c0.215-0.758 0.512-1.479 0.884-2.144l0.369-0.66-1.411-1.411c0.777-1.090 1.738-2.051 2.828-2.829l1.411 1.411 0.66-0.37c0.664-0.372 1.385-0.669 2.144-0.884l0.728-0.205v-2.004c0.678-0.118 1.348-0.177 2-0.177M16 3c-1.034 0-2.035 0.134-3 0.362v2.063c-0.831 0.235-1.622 0.561-2.359 0.974l-1.455-1.455c-1.724 1.065-3.177 2.518-4.242 4.243l1.454 1.454c-0.413 0.738-0.738 1.529-0.973 2.359h-2.063c-0.228 0.965-0.362 1.966-0.362 3s0.134 2.035 0.362 3h2.063c0.235 0.831 0.561 1.622 0.974 2.36l-1.454 1.454c1.065 1.725 2.519 3.177 4.243 4.242l1.454-1.454c0.738 0.412 1.528 0.737 2.358 0.973v2.063c0.965 0.228 1.966 0.362 3 0.362s2.035-0.134 3-0.361v-2.063c0.83-0.235 1.621-0.561 2.359-0.973l1.454 1.454c1.725-1.065 3.178-2.519 4.242-4.243l-1.454-1.454c0.413-0.738 0.738-1.529 0.974-2.359h2.064c0.227-0.966 0.361-1.967 0.361-3.001s-0.134-2.035-0.361-3h-2.064c-0.235-0.83-0.561-1.621-0.973-2.358l1.454-1.454c-1.064-1.725-2.518-3.177-4.241-4.243l-1.454 1.454c-0.738-0.413-1.53-0.739-2.361-0.974v-2.063c-0.965-0.228-1.966-0.362-3-0.362v0z"></path>
<path stroke="#000" fill="#000" stroke-width="1" stroke-miterlimit="10" stroke-linecap="butt" stroke-linejoin="miter" d="M16 13c1.654 0 3 1.346 3 3s-1.346 3-3 3-3-1.346-3-3 1.346-3 3-3M16 12c-2.21 0-4 1.79-4 4 0 2.208 1.79 4 4 4 2.206 0 4-1.792 4-4 0-2.21-1.794-4-4-4v0z"></path>
</svg>
